<svg xmlns="http://www.w3.org/2000/svg" width="500" height="500" viewBox="0 0 500 500" version="1.1"><path d="M 223 2.147 C 190.158 7.575, 177.134 11.045, 153.500 20.664 C 95.717 44.180, 46.731 92.591, 21.005 151.600 C 6.210 185.536, -0.891 225.790, 1.828 260.311 C 7.401 331.067, 43.663 397.819, 100.173 441.347 C 143.994 475.102, 192.911 492.216, 246 492.367 C 285.020 492.477, 319.315 484.709, 353.500 468.017 C 395.285 447.613, 431 415.352, 456.475 375 C 473.268 348.400, 486.159 314.674, 491.640 283 C 506.286 198.363, 471.808 111.784, 400.847 55.004 C 357.475 20.299, 301.748 0.769, 247.087 1.119 C 236.864 1.184, 226.025 1.647, 223 2.147 M 227.500 30.975 C 217.696 32.133, 203.156 34.715, 196.836 36.420 C 187.989 38.806, 180.617 41.039, 178.500 41.973 C 177.400 42.459, 173.350 44.070, 169.500 45.553 C 142.997 55.763, 116.348 73.444, 95 94.981 C 68.300 121.918, 50.702 150.770, 39.180 186.500 C 29.118 217.700, 28.051 258.404, 36.398 292.627 C 44.363 325.284, 59.012 354.523, 81.927 383.500 C 93.653 398.329, 121.734 422.831, 138.107 432.520 C 152.905 441.277, 173.657 451.008, 184 454.041 C 194.072 456.995, 206.587 460.020, 215.500 461.657 C 229.757 464.274, 266.280 464.276, 280.500 461.660 C 318.266 454.713, 348.016 441.823, 377.500 419.633 C 387.011 412.475, 408.449 391.343, 416.187 381.497 C 430.989 362.665, 447.307 333.261, 453.924 313.500 C 470.821 263.037, 469.826 215.972, 450.856 168.500 C 428.885 113.516, 380.516 66.078, 324.330 44.409 C 310.828 39.202, 298.996 35.939, 282.945 32.997 C 270.154 30.652, 239.646 29.540, 227.500 30.975 M 236.500 48.191 C 217.263 52.701, 207.230 57.709, 196.849 67.986 C 184.696 80.016, 180 92.406, 180 112.439 L 180 121.962 177.250 122.550 C 167.368 124.664, 166.705 126.203, 166.592 147.315 C 166.504 163.782, 166.597 164.636, 168.829 167.765 C 173.545 174.377, 169.622 174.080, 248.250 173.776 C 315.075 173.517, 319.665 173.388, 322.164 171.691 C 327.190 168.279, 328 164.797, 328 146.615 L 328 130.032 325.236 126.938 C 323.650 125.163, 320.984 123.541, 318.986 123.134 L 315.500 122.423 314.862 110.764 C 314.068 96.237, 312.773 90.455, 308.241 81.205 C 301.868 68.198, 286.854 56.424, 270 51.219 C 256.763 47.130, 245.403 46.103, 236.500 48.191 M 233.750 65.547 L 229 67.061 229 89.364 C 229 101.630, 229.229 111.896, 229.510 112.176 C 229.790 112.457, 232.378 111.871, 235.260 110.876 C 241.733 108.639, 253.211 108.458, 259 110.500 C 261.338 111.325, 263.645 112, 264.126 112 C 264.607 112, 265 101.864, 265 89.475 L 265 66.950 262.250 65.813 C 257.774 63.961, 239.267 63.789, 233.750 65.547 M 151.246 75.750 C 148.230 77.388, 133.083 91.379, 104.250 119.159 C 90.990 131.935, 89.886 134.056, 94.283 138.298 C 95.538 139.509, 97.304 141.668, 98.205 143.097 C 100.385 146.548, 105.063 148.398, 109.503 147.565 C 112.389 147.024, 117.767 142.350, 138.769 122.132 C 152.921 108.508, 165.512 95.863, 166.750 94.033 C 170.928 87.851, 168.688 78.959, 162.094 75.549 C 158.203 73.536, 155.221 73.592, 151.246 75.750 M 334.021 75.116 C 330.126 76.670, 328.076 79.004, 326.957 83.159 C 324.742 91.385, 325.541 92.453, 355.019 120.670 C 369.861 134.876, 383.060 146.900, 384.351 147.390 C 387.959 148.758, 393.927 147.199, 396.621 144.184 C 397.939 142.708, 400.139 140.358, 401.509 138.962 C 403.929 136.497, 404.727 132.567, 403.235 130.465 C 401.847 128.511, 353.924 83.253, 348.500 78.774 C 342.616 73.916, 339.195 73.052, 334.021 75.116 M 208.618 78.998 C 200.871 86.139, 195.422 99.323, 198.522 103.425 C 199.560 104.799, 199.813 106.802, 199.405 110.425 C 198.256 120.628, 202.291 126.070, 209.266 123.724 C 214.709 121.893, 215 120.527, 215 96.777 C 215 82.609, 214.643 75, 213.978 75 C 213.415 75, 211.004 76.799, 208.618 78.998 M 280 87 L 280 99 288.579 99 L 297.159 99 296.481 95.750 C 296.109 93.963, 294.740 90.649, 293.439 88.386 C 291.042 84.214, 282.366 75, 280.835 75 C 280.376 75, 280 80.400, 280 87 M 344 97.859 C 344 99.843, 347.519 101.815, 348.790 100.543 C 349.736 99.598, 347.539 96.550, 345.643 96.177 C 344.558 95.963, 344 96.534, 344 97.859 M 147.345 98.543 C 147.019 99.392, 147.004 100.337, 147.310 100.643 C 148.186 101.519, 150 100.034, 150 98.441 C 150 96.522, 148.092 96.596, 147.345 98.543 M 280 116.885 C 280 120.018, 280.532 121.120, 282.750 122.580 C 286.930 125.330, 291.788 124.948, 294.630 121.644 C 295.963 120.094, 297 117.600, 297 115.944 L 297 113 288.500 113 L 280 113 280 116.885 M 363 116.827 C 363 118.772, 364.799 120, 367.651 120 C 368.622 120, 369.028 119.218, 368.820 117.750 C 368.385 114.691, 363 113.836, 363 116.827 M 128 117.500 C 128 118.433, 128.944 119, 130.500 119 C 132.220 119, 132.995 118.454, 132.985 117.250 C 132.972 115.754, 132.828 115.718, 132 117 C 131.354 118, 131.026 118.083, 131.015 117.250 C 131.007 116.563, 130.325 116, 129.500 116 C 128.675 116, 128 116.675, 128 117.500 M 238.759 126.423 C 234.492 127.946, 231.214 129.953, 225.500 134.540 C 217.798 140.723, 216.640 141, 198.508 141 L 181.916 141 182.208 148.750 L 182.500 156.500 247.750 156.757 L 313 157.014 313 149.007 L 313 141 296.622 141 C 277.817 141, 277.130 140.807, 266.623 132.567 C 257.232 125.202, 247.928 123.151, 238.759 126.423 M 110.972 130.052 C 110.368 131.181, 110.014 132.769, 110.187 133.580 C 110.458 134.857, 110.801 134.843, 112.750 133.471 C 115.267 131.699, 115.797 128, 113.535 128 C 112.730 128, 111.576 128.924, 110.972 130.052 M 382 132.032 C 382 133.481, 382.681 134, 384.583 134 C 387.638 134, 387.399 132.062, 384.199 130.878 C 382.403 130.214, 382 130.425, 382 132.032 M 354.763 159.565 C 352.049 161.038, 351.304 162.708, 350.774 168.499 C 350.512 171.365, 350.235 171.533, 344.500 172.292 C 339.749 172.920, 338.033 173.649, 336.255 175.793 C 333.450 179.175, 333.385 182.948, 336.073 186.365 C 337.928 188.723, 338.820 189, 344.573 189 L 351 189 351 195.481 C 351 201.482, 350.823 202.006, 348.608 202.562 C 347.293 202.892, 345.380 203.074, 344.358 202.966 C 340.174 202.524, 337.974 203.112, 336.039 205.189 C 333.476 207.940, 333.448 211.582, 335.959 215.701 C 337.781 218.688, 338.332 218.922, 344.206 219.201 L 350.500 219.500 350.500 244.487 L 350.500 269.473 347.500 270.866 C 345.850 271.632, 343.445 273.213, 342.155 274.379 C 336.845 279.181, 337 277, 337 347.016 C 337 389.989, 337.352 412.789, 338.035 414.066 C 340.293 418.285, 349.314 415.617, 362 406.978 C 374.179 398.684, 384.573 387.270, 391.717 374.345 L 395.500 367.500 396 309.500 L 396.500 251.500 418.228 251 L 439.955 250.500 442.555 247.899 C 445.151 245.304, 445.156 245.266, 445.328 227.074 L 445.500 208.848 442.234 205.924 L 438.968 203 404.566 203 C 385.645 203, 369.452 202.727, 368.582 202.393 C 367.372 201.929, 367 200.310, 367 195.510 L 367 189.235 374.250 188.689 C 378.238 188.389, 390.424 188.104, 401.331 188.055 C 422.936 187.959, 424.091 187.712, 429.500 182.024 C 432.254 179.128, 432.528 178.193, 432.846 170.602 C 433.129 163.820, 432.884 162.027, 431.480 160.623 C 429.090 158.232, 427.831 158.959, 425.332 164.171 C 422.196 170.716, 418.611 172.148, 406.272 171.786 L 396.500 171.500 396.226 168.500 C 395.690 162.635, 394.935 161.018, 392.035 159.518 C 387.859 157.358, 386.238 157.608, 382.923 160.923 C 380.648 163.198, 380 164.750, 380 167.923 L 380 172 373.500 172 L 367 172 366.968 167.750 C 366.934 163.171, 365.755 160.995, 362.316 159.163 C 359.509 157.668, 358.123 157.742, 354.763 159.565 M 76.248 160.119 C 70.196 161.867, 58.738 178.196, 54.539 191.057 C 51.974 198.915, 50.792 213.782, 51.976 223.308 C 53.223 233.343, 54.819 237.585, 59.239 242.620 C 64.659 248.792, 68.541 249.953, 83.850 249.978 L 97.200 250 100.600 246.600 L 104 243.200 104 226.554 L 104 209.909 110.750 210.204 L 117.500 210.500 117.765 239.160 L 118.030 267.819 113.765 268.472 C 107.369 269.451, 103.044 272.053, 100.907 276.210 C 99.119 279.689, 99 282.573, 99 322.377 C 99 370.717, 98.494 367.443, 108.043 380.928 C 117.235 393.910, 131.377 406.275, 144.848 413.108 C 151.440 416.451, 154.062 416.694, 156.345 414.171 C 157.850 412.508, 158 406.351, 158 346.321 L 158 280.300 155.154 276.371 C 152.048 272.084, 147.354 269.678, 139.500 268.347 L 134.500 267.500 134.528 259.750 C 134.543 255.488, 134.656 244.575, 134.778 235.500 L 135 219 144.326 219 C 152.762 219, 153.857 218.781, 155.810 216.702 C 159.113 213.186, 159.570 208.994, 157.006 205.734 C 154.936 203.103, 154.502 203, 145.486 203 C 140.334 203, 135.904 202.654, 135.642 202.230 C 135.380 201.807, 135.040 198.769, 134.886 195.480 L 134.605 189.500 144.767 189 C 156.273 188.434, 158.129 187.437, 158.290 181.740 C 158.504 174.218, 154.679 172.035, 141.250 172.011 C 135.359 172.001, 135 171.865, 135 169.649 C 135 168.356, 134.514 165.904, 133.920 164.200 C 132.603 160.423, 127.736 158.389, 123.692 159.927 C 119.050 161.692, 118 165.478, 118 180.450 L 118 194 111 194 L 104 194 104 180.450 C 104 165.085, 103.044 161.908, 97.881 160.108 C 94.094 158.788, 80.835 158.795, 76.248 160.119 M 79.087 179.710 C 75.326 184.274, 71.716 191.671, 69.599 199.154 C 66.414 210.414, 68.442 230.560, 73.006 233.003 C 74.030 233.551, 77.598 234, 80.934 234 L 87 234 87 205 L 87 176 84.573 176 C 82.989 176, 81.083 177.289, 79.087 179.710 M 208.566 190.582 C 200.218 193.640, 198.630 196.631, 198 210.500 L 197.500 221.500 187.855 222 C 180.186 222.398, 177.727 222.906, 175.855 224.482 C 171.819 227.878, 170.045 230.374, 169.089 234 C 168.534 236.105, 168.432 273.182, 168.833 327 L 169.500 416.500 171.835 421 C 174.737 426.590, 180.225 432.410, 185.584 435.580 C 193.078 440.012, 198.356 440.978, 215.167 440.989 C 232.075 441.001, 236.353 440.019, 243.648 434.455 L 246.797 432.053 249.348 434.059 C 250.750 435.162, 254.409 437.175, 257.478 438.532 C 262.630 440.811, 264.248 441, 278.625 441 C 296.457 441, 302.452 439.752, 310.660 434.332 C 316.484 430.487, 320.119 426.149, 323.314 419.233 L 325.500 414.500 325.500 323.927 L 325.500 233.354 322.839 229.333 C 319.267 223.935, 314.871 222, 306.181 222 C 295.632 222, 296 222.414, 296 210.541 C 296 201.575, 295.718 199.871, 293.742 196.898 C 292.500 195.029, 289.480 192.488, 287.030 191.250 C 282.655 189.040, 281.957 189.001, 247.538 189.070 C 219.656 189.127, 211.697 189.435, 208.566 190.582 M 214 213.486 L 214 221 222.250 221.010 C 226.787 221.016, 241.525 221.126, 255 221.255 L 279.500 221.490 279.500 213.995 L 279.500 206.500 246.750 206.236 L 214 205.973 214 213.486 M 367.417 220.355 C 367.131 221.101, 367.033 224.588, 367.199 228.105 L 367.500 234.500 399.500 234.780 C 417.100 234.933, 432.512 234.812, 433.750 234.510 C 435.834 234.002, 436 233.410, 436 226.481 L 436 219 415.655 219 C 396.280 219, 395.220 219.100, 393.416 221.093 C 390.394 224.432, 388.393 225.136, 385.576 223.853 C 384.181 223.217, 382.774 221.865, 382.452 220.848 C 381.955 219.284, 380.796 219, 374.901 219 C 369.964 219, 367.786 219.394, 367.417 220.355 M 183.455 239.257 C 183.190 239.949, 183.091 255.586, 183.236 274.007 L 183.500 307.500 190.623 307.791 C 197.317 308.065, 197.782 307.945, 198.359 305.791 C 198.696 304.531, 198.979 292.839, 198.986 279.809 C 198.995 265.419, 199.385 255.880, 199.981 255.512 C 200.520 255.178, 204.592 256.502, 209.029 258.453 C 213.466 260.404, 217.525 262, 218.048 262 C 218.598 262, 219 256.926, 219 250 L 219 238 201.469 238 C 188.313 238, 183.817 238.314, 183.455 239.257 M 235 252.885 C 235 269.630, 234.431 268.365, 243.810 272.471 L 248.120 274.358 253.560 271.690 L 259 269.022 259 253.511 L 259 238 247 238 L 235 238 235 252.885 M 275.689 238.644 C 274.752 239.581, 274.809 261.767, 275.750 262.334 C 276.163 262.582, 279.796 261.259, 283.823 259.393 C 287.851 257.527, 292.014 256, 293.073 256 C 295.396 256, 295.416 256.290, 295.109 285 C 294.988 296.275, 295.292 306.085, 295.784 306.799 C 296.409 307.707, 298.763 308.008, 303.590 307.799 L 310.500 307.500 310.500 273 L 310.500 238.500 293.439 238.227 C 284.056 238.077, 276.069 238.265, 275.689 238.644 M 366.774 268.250 L 366.500 285.500 359.250 285.794 L 352 286.088 352 291.544 L 352 297 357.845 297 C 364.634 297, 367.333 299.029, 367.333 304.133 C 367.333 308.610, 363.868 310.950, 357.195 310.978 L 351.890 311 352.195 315.592 L 352.500 320.185 358.341 320.346 C 363.213 320.480, 364.509 320.910, 366.153 322.940 C 367.498 324.602, 367.931 326.187, 367.519 327.937 C 366.524 332.159, 363.430 334, 357.332 334 L 351.885 334 352.193 338.250 L 352.500 342.500 357 342.764 C 364.162 343.183, 366.007 343.888, 367.037 346.597 C 369.338 352.649, 364.519 357.408, 356.664 356.839 L 352.500 356.538 352.228 375.269 C 352.078 385.571, 352.326 394, 352.779 394 C 354.657 394, 372.163 376.508, 375.928 370.870 L 380 364.772 380 307.886 L 380 251 373.524 251 L 367.047 251 366.774 268.250 M 55.355 265.682 C 49.845 266.434, 47.413 271.423, 49.440 277.812 C 50.539 281.275, 53.842 282, 68.509 282 C 81.002 282, 82.064 281.849, 84.544 279.716 C 86.580 277.965, 87.200 276.514, 87.200 273.506 C 87.200 267.332, 84.772 266, 73.514 266 C 68.419 266, 62.956 265.832, 61.375 265.626 C 59.794 265.421, 57.085 265.446, 55.355 265.682 M 413.772 265.745 C 412.272 265.956, 410.134 267.285, 409.022 268.699 C 406.238 272.238, 406.435 276.526, 409.525 279.615 C 412.039 282.130, 412.112 282.139, 427.615 281.820 C 442.582 281.512, 443.255 281.409, 445.091 279.139 C 447.840 275.740, 447.559 270.874, 444.444 267.947 C 442.035 265.685, 441.154 265.540, 429.194 265.453 C 422.212 265.402, 415.272 265.534, 413.772 265.745 M 214.705 279.325 C 214.447 279.998, 214.472 286.725, 214.760 294.274 L 215.284 308 226.642 308 L 238 308 238 298.137 L 238 288.273 232.160 285.652 C 215.897 278.354, 215.178 278.093, 214.705 279.325 M 267.984 283.579 C 262.218 286.051, 256.921 288.841, 256.213 289.778 C 255.349 290.922, 255.021 294.113, 255.213 299.491 L 255.500 307.500 267.500 307.500 L 279.500 307.500 279.780 294.715 C 279.934 287.683, 279.702 281.290, 279.264 280.508 C 278.615 279.347, 276.538 279.913, 267.984 283.579 M 115 291.500 L 115 297 129 297 L 143 297 143 291.500 L 143 286 129 286 L 115 286 115 291.500 M 64.761 296.062 C 60.200 298.470, 58.308 301.207, 57.439 306.647 C 56.561 312.150, 58.242 316.873, 62.574 321.072 C 65.829 324.226, 66.605 324.500, 72.306 324.500 C 79.961 324.500, 83.787 322.112, 86.966 315.349 C 88.943 311.143, 89.042 310.222, 87.940 306.286 C 87.266 303.877, 85.867 300.829, 84.832 299.514 C 80.472 293.971, 71.609 292.447, 64.761 296.062 M 415.748 295.661 C 408.364 299.551, 405.557 311.047, 410.270 318.102 C 414.805 324.890, 424.085 326.925, 431.396 322.734 C 441.511 316.935, 441.570 301.778, 431.500 295.898 C 427.838 293.759, 419.595 293.636, 415.748 295.661 M 115 316 L 115 321 120.845 321 C 127.608 321, 130 322.769, 130 327.772 C 130 332.035, 126.932 334, 120.277 334 L 115 334 115 338.500 L 115 343 120.927 343 C 126.180 343, 127.097 343.308, 128.984 345.707 C 130.472 347.598, 130.926 349.179, 130.491 350.957 C 129.481 355.083, 127.447 356.340, 121.030 356.804 C 115 357.240, 115 357.241, 115 360.449 C 115 363.954, 118.306 369.499, 125.188 377.536 C 131.248 384.612, 140.927 393.191, 142.325 392.725 C 143.191 392.437, 143.573 382.241, 143.778 353.917 C 143.931 332.788, 143.810 314.488, 143.509 313.250 C 142.974 311.050, 142.651 311, 128.981 311 L 115 311 115 316 M 183.424 326.338 C 183.141 327.075, 183.043 331.237, 183.205 335.588 L 183.500 343.500 190.750 343.794 L 198 344.088 198 334.544 L 198 325 190.969 325 C 186.018 325, 183.785 325.396, 183.424 326.338 M 214.429 326.325 C 214.144 327.068, 214.043 331.237, 214.205 335.588 L 214.500 343.500 247 343.500 L 279.500 343.500 279.500 334.500 L 279.500 325.500 247.224 325.236 C 220.841 325.020, 214.853 325.219, 214.429 326.325 M 296 334.500 L 296 344.088 303.250 343.794 L 310.500 343.500 310.500 334.500 L 310.500 325.500 303.250 325.206 L 296 324.912 296 334.500 M 183.428 362.327 C 183.141 363.075, 183.040 367.020, 183.203 371.094 L 183.500 378.500 210 378.500 L 236.500 378.500 236.500 370 L 236.500 361.500 210.225 361.233 C 188.808 361.016, 183.854 361.218, 183.428 362.327 M 248.211 369.736 L 248.500 378.500 279.500 378.500 L 310.500 378.500 310.500 370 L 310.500 361.500 279.211 361.236 L 247.922 360.971 248.211 369.736 M 183.667 395.667 C 182.385 396.949, 183.014 407.790, 184.593 411.628 C 186.414 416.054, 190.335 420.569, 194.038 422.506 C 196.891 423.997, 230.839 424.923, 234.750 423.617 C 236.921 422.892, 237 422.433, 237 410.514 C 237 403.721, 236.727 397.452, 236.393 396.582 C 235.861 395.196, 232.596 395, 210.060 395 C 195.910 395, 184.033 395.300, 183.667 395.667 M 248.667 395.667 C 248.300 396.033, 248.008 398.846, 248.017 401.917 C 248.039 409.396, 251.940 417.113, 257.849 421.368 L 262.197 424.500 280.029 424.312 C 299.773 424.103, 302.008 423.546, 306.310 417.751 C 309.513 413.437, 311 408.739, 311 402.933 C 311 394.367, 313.509 395, 279.560 395 C 262.935 395, 249.033 395.300, 248.667 395.667" stroke="none" fill="#31384c" fill-rule="evenodd"/><path d="M 227.500 30.975 C 217.696 32.133, 203.156 34.715, 196.836 36.420 C 187.989 38.806, 180.617 41.039, 178.500 41.973 C 177.400 42.459, 173.350 44.070, 169.500 45.553 C 142.997 55.763, 116.348 73.444, 95 94.981 C 68.300 121.918, 50.702 150.770, 39.180 186.500 C 29.118 217.700, 28.051 258.404, 36.398 292.627 C 44.363 325.284, 59.012 354.523, 81.927 383.500 C 93.653 398.329, 121.734 422.831, 138.107 432.520 C 152.905 441.277, 173.657 451.008, 184 454.041 C 194.072 456.995, 206.587 460.020, 215.500 461.657 C 229.757 464.274, 266.280 464.276, 280.500 461.660 C 318.266 454.713, 348.016 441.823, 377.500 419.633 C 387.011 412.475, 408.449 391.343, 416.187 381.497 C 430.989 362.665, 447.307 333.261, 453.924 313.500 C 470.821 263.037, 469.826 215.972, 450.856 168.500 C 428.885 113.516, 380.516 66.078, 324.330 44.409 C 310.828 39.202, 298.996 35.939, 282.945 32.997 C 270.154 30.652, 239.646 29.540, 227.500 30.975 M 236.500 48.191 C 217.263 52.701, 207.230 57.709, 196.849 67.986 C 184.696 80.016, 180 92.406, 180 112.439 L 180 121.962 177.250 122.550 C 167.368 124.664, 166.705 126.203, 166.592 147.315 C 166.504 163.782, 166.597 164.636, 168.829 167.765 C 173.545 174.377, 169.622 174.080, 248.250 173.776 C 315.075 173.517, 319.665 173.388, 322.164 171.691 C 327.190 168.279, 328 164.797, 328 146.615 L 328 130.032 325.236 126.938 C 323.650 125.163, 320.984 123.541, 318.986 123.134 L 315.500 122.423 314.862 110.764 C 314.068 96.237, 312.773 90.455, 308.241 81.205 C 301.868 68.198, 286.854 56.424, 270 51.219 C 256.763 47.130, 245.403 46.103, 236.500 48.191 M 233.750 65.547 L 229 67.061 229 89.364 C 229 101.630, 229.229 111.896, 229.510 112.176 C 229.790 112.457, 232.378 111.871, 235.260 110.876 C 241.733 108.639, 253.211 108.458, 259 110.500 C 261.338 111.325, 263.645 112, 264.126 112 C 264.607 112, 265 101.864, 265 89.475 L 265 66.950 262.250 65.813 C 257.774 63.961, 239.267 63.789, 233.750 65.547 M 151.246 75.750 C 148.230 77.388, 133.083 91.379, 104.250 119.159 C 90.990 131.935, 89.886 134.056, 94.283 138.298 C 95.538 139.509, 97.304 141.668, 98.205 143.097 C 100.385 146.548, 105.063 148.398, 109.503 147.565 C 112.389 147.024, 117.767 142.350, 138.769 122.132 C 152.921 108.508, 165.512 95.863, 166.750 94.033 C 170.928 87.851, 168.688 78.959, 162.094 75.549 C 158.203 73.536, 155.221 73.592, 151.246 75.750 M 334.021 75.116 C 330.126 76.670, 328.076 79.004, 326.957 83.159 C 324.742 91.385, 325.541 92.453, 355.019 120.670 C 369.861 134.876, 383.060 146.900, 384.351 147.390 C 387.959 148.758, 393.927 147.199, 396.621 144.184 C 397.939 142.708, 400.139 140.358, 401.509 138.962 C 403.929 136.497, 404.727 132.567, 403.235 130.465 C 401.847 128.511, 353.924 83.253, 348.500 78.774 C 342.616 73.916, 339.195 73.052, 334.021 75.116 M 208.618 78.998 C 200.871 86.139, 195.422 99.323, 198.522 103.425 C 199.560 104.799, 199.813 106.802, 199.405 110.425 C 198.256 120.628, 202.291 126.070, 209.266 123.724 C 214.709 121.893, 215 120.527, 215 96.777 C 215 82.609, 214.643 75, 213.978 75 C 213.415 75, 211.004 76.799, 208.618 78.998 M 280 87 L 280 99 288.579 99 L 297.159 99 296.481 95.750 C 296.109 93.963, 294.740 90.649, 293.439 88.386 C 291.042 84.214, 282.366 75, 280.835 75 C 280.376 75, 280 80.400, 280 87 M 344 97.859 C 344 99.843, 347.519 101.815, 348.790 100.543 C 349.736 99.598, 347.539 96.550, 345.643 96.177 C 344.558 95.963, 344 96.534, 344 97.859 M 147.345 98.543 C 147.019 99.392, 147.004 100.337, 147.310 100.643 C 148.186 101.519, 150 100.034, 150 98.441 C 150 96.522, 148.092 96.596, 147.345 98.543 M 280 116.885 C 280 120.018, 280.532 121.120, 282.750 122.580 C 286.930 125.330, 291.788 124.948, 294.630 121.644 C 295.963 120.094, 297 117.600, 297 115.944 L 297 113 288.500 113 L 280 113 280 116.885 M 363 116.827 C 363 118.772, 364.799 120, 367.651 120 C 368.622 120, 369.028 119.218, 368.820 117.750 C 368.385 114.691, 363 113.836, 363 116.827 M 128 117.500 C 128 118.433, 128.944 119, 130.500 119 C 132.220 119, 132.995 118.454, 132.985 117.250 C 132.972 115.754, 132.828 115.718, 132 117 C 131.354 118, 131.026 118.083, 131.015 117.250 C 131.007 116.563, 130.325 116, 129.500 116 C 128.675 116, 128 116.675, 128 117.500 M 238.759 126.423 C 234.492 127.946, 231.214 129.953, 225.500 134.540 C 217.798 140.723, 216.640 141, 198.508 141 L 181.916 141 182.208 148.750 L 182.500 156.500 247.750 156.757 L 313 157.014 313 149.007 L 313 141 296.622 141 C 277.817 141, 277.130 140.807, 266.623 132.567 C 257.232 125.202, 247.928 123.151, 238.759 126.423 M 110.972 130.052 C 110.368 131.181, 110.014 132.769, 110.187 133.580 C 110.458 134.857, 110.801 134.843, 112.750 133.471 C 115.267 131.699, 115.797 128, 113.535 128 C 112.730 128, 111.576 128.924, 110.972 130.052 M 382 132.032 C 382 133.481, 382.681 134, 384.583 134 C 387.638 134, 387.399 132.062, 384.199 130.878 C 382.403 130.214, 382 130.425, 382 132.032 M 354.763 159.565 C 352.049 161.038, 351.304 162.708, 350.774 168.499 C 350.512 171.365, 350.235 171.533, 344.500 172.292 C 339.749 172.920, 338.033 173.649, 336.255 175.793 C 333.450 179.175, 333.385 182.948, 336.073 186.365 C 337.928 188.723, 338.820 189, 344.573 189 L 351 189 351 195.481 C 351 201.482, 350.823 202.006, 348.608 202.562 C 347.293 202.892, 345.380 203.074, 344.358 202.966 C 340.174 202.524, 337.974 203.112, 336.039 205.189 C 333.476 207.940, 333.448 211.582, 335.959 215.701 C 337.781 218.688, 338.332 218.922, 344.206 219.201 L 350.500 219.500 350.500 244.487 L 350.500 269.473 347.500 270.866 C 345.850 271.632, 343.445 273.213, 342.155 274.379 C 336.845 279.181, 337 277, 337 347.016 C 337 389.989, 337.352 412.789, 338.035 414.066 C 340.293 418.285, 349.314 415.617, 362 406.978 C 374.179 398.684, 384.573 387.270, 391.717 374.345 L 395.500 367.500 396 309.500 L 396.500 251.500 418.228 251 L 439.955 250.500 442.555 247.899 C 445.151 245.304, 445.156 245.266, 445.328 227.074 L 445.500 208.848 442.234 205.924 L 438.968 203 404.566 203 C 385.645 203, 369.452 202.727, 368.582 202.393 C 367.372 201.929, 367 200.310, 367 195.510 L 367 189.235 374.250 188.689 C 378.238 188.389, 390.424 188.104, 401.331 188.055 C 422.936 187.959, 424.091 187.712, 429.500 182.024 C 432.254 179.128, 432.528 178.193, 432.846 170.602 C 433.129 163.820, 432.884 162.027, 431.480 160.623 C 429.090 158.232, 427.831 158.959, 425.332 164.171 C 422.196 170.716, 418.611 172.148, 406.272 171.786 L 396.500 171.500 396.226 168.500 C 395.690 162.635, 394.935 161.018, 392.035 159.518 C 387.859 157.358, 386.238 157.608, 382.923 160.923 C 380.648 163.198, 380 164.750, 380 167.923 L 380 172 373.500 172 L 367 172 366.968 167.750 C 366.934 163.171, 365.755 160.995, 362.316 159.163 C 359.509 157.668, 358.123 157.742, 354.763 159.565 M 76.248 160.119 C 70.196 161.867, 58.738 178.196, 54.539 191.057 C 51.974 198.915, 50.792 213.782, 51.976 223.308 C 53.223 233.343, 54.819 237.585, 59.239 242.620 C 64.659 248.792, 68.541 249.953, 83.850 249.978 L 97.200 250 100.600 246.600 L 104 243.200 104 226.554 L 104 209.909 110.750 210.204 L 117.500 210.500 117.765 239.160 L 118.030 267.819 113.765 268.472 C 107.369 269.451, 103.044 272.053, 100.907 276.210 C 99.119 279.689, 99 282.573, 99 322.377 C 99 370.717, 98.494 367.443, 108.043 380.928 C 117.235 393.910, 131.377 406.275, 144.848 413.108 C 151.440 416.451, 154.062 416.694, 156.345 414.171 C 157.850 412.508, 158 406.351, 158 346.321 L 158 280.300 155.154 276.371 C 152.048 272.084, 147.354 269.678, 139.500 268.347 L 134.500 267.500 134.528 259.750 C 134.543 255.488, 134.656 244.575, 134.778 235.500 L 135 219 144.326 219 C 152.762 219, 153.857 218.781, 155.810 216.702 C 159.113 213.186, 159.570 208.994, 157.006 205.734 C 154.936 203.103, 154.502 203, 145.486 203 C 140.334 203, 135.904 202.654, 135.642 202.230 C 135.380 201.807, 135.040 198.769, 134.886 195.480 L 134.605 189.500 144.767 189 C 156.273 188.434, 158.129 187.437, 158.290 181.740 C 158.504 174.218, 154.679 172.035, 141.250 172.011 C 135.359 172.001, 135 171.865, 135 169.649 C 135 168.356, 134.514 165.904, 133.920 164.200 C 132.603 160.423, 127.736 158.389, 123.692 159.927 C 119.050 161.692, 118 165.478, 118 180.450 L 118 194 111 194 L 104 194 104 180.450 C 104 165.085, 103.044 161.908, 97.881 160.108 C 94.094 158.788, 80.835 158.795, 76.248 160.119 M 79.087 179.710 C 75.326 184.274, 71.716 191.671, 69.599 199.154 C 66.414 210.414, 68.442 230.560, 73.006 233.003 C 74.030 233.551, 77.598 234, 80.934 234 L 87 234 87 205 L 87 176 84.573 176 C 82.989 176, 81.083 177.289, 79.087 179.710 M 208.566 190.582 C 200.218 193.640, 198.630 196.631, 198 210.500 L 197.500 221.500 187.855 222 C 180.186 222.398, 177.727 222.906, 175.855 224.482 C 171.819 227.878, 170.045 230.374, 169.089 234 C 168.534 236.105, 168.432 273.182, 168.833 327 L 169.500 416.500 171.835 421 C 174.737 426.590, 180.225 432.410, 185.584 435.580 C 193.078 440.012, 198.356 440.978, 215.167 440.989 C 232.075 441.001, 236.353 440.019, 243.648 434.455 L 246.797 432.053 249.348 434.059 C 250.750 435.162, 254.409 437.175, 257.478 438.532 C 262.630 440.811, 264.248 441, 278.625 441 C 296.457 441, 302.452 439.752, 310.660 434.332 C 316.484 430.487, 320.119 426.149, 323.314 419.233 L 325.500 414.500 325.500 323.927 L 325.500 233.354 322.839 229.333 C 319.267 223.935, 314.871 222, 306.181 222 C 295.632 222, 296 222.414, 296 210.541 C 296 201.575, 295.718 199.871, 293.742 196.898 C 292.500 195.029, 289.480 192.488, 287.030 191.250 C 282.655 189.040, 281.957 189.001, 247.538 189.070 C 219.656 189.127, 211.697 189.435, 208.566 190.582 M 214 213.486 L 214 221 222.250 221.010 C 226.787 221.016, 241.525 221.126, 255 221.255 L 279.500 221.490 279.500 213.995 L 279.500 206.500 246.750 206.236 L 214 205.973 214 213.486 M 367.417 220.355 C 367.131 221.101, 367.033 224.588, 367.199 228.105 L 367.500 234.500 399.500 234.780 C 417.100 234.933, 432.512 234.812, 433.750 234.510 C 435.834 234.002, 436 233.410, 436 226.481 L 436 219 415.655 219 C 396.280 219, 395.220 219.100, 393.416 221.093 C 390.394 224.432, 388.393 225.136, 385.576 223.853 C 384.181 223.217, 382.774 221.865, 382.452 220.848 C 381.955 219.284, 380.796 219, 374.901 219 C 369.964 219, 367.786 219.394, 367.417 220.355 M 183.455 239.257 C 183.190 239.949, 183.091 255.586, 183.236 274.007 L 183.500 307.500 190.623 307.791 C 197.317 308.065, 197.782 307.945, 198.359 305.791 C 198.696 304.531, 198.979 292.839, 198.986 279.809 C 198.995 265.419, 199.385 255.880, 199.981 255.512 C 200.520 255.178, 204.592 256.502, 209.029 258.453 C 213.466 260.404, 217.525 262, 218.048 262 C 218.598 262, 219 256.926, 219 250 L 219 238 201.469 238 C 188.313 238, 183.817 238.314, 183.455 239.257 M 235 252.885 C 235 269.630, 234.431 268.365, 243.810 272.471 L 248.120 274.358 253.560 271.690 L 259 269.022 259 253.511 L 259 238 247 238 L 235 238 235 252.885 M 275.689 238.644 C 274.752 239.581, 274.809 261.767, 275.750 262.334 C 276.163 262.582, 279.796 261.259, 283.823 259.393 C 287.851 257.527, 292.014 256, 293.073 256 C 295.396 256, 295.416 256.290, 295.109 285 C 294.988 296.275, 295.292 306.085, 295.784 306.799 C 296.409 307.707, 298.763 308.008, 303.590 307.799 L 310.500 307.500 310.500 273 L 310.500 238.500 293.439 238.227 C 284.056 238.077, 276.069 238.265, 275.689 238.644 M 366.774 268.250 L 366.500 285.500 359.250 285.794 L 352 286.088 352 291.544 L 352 297 357.845 297 C 364.634 297, 367.333 299.029, 367.333 304.133 C 367.333 308.610, 363.868 310.950, 357.195 310.978 L 351.890 311 352.195 315.592 L 352.500 320.185 358.341 320.346 C 363.213 320.480, 364.509 320.910, 366.153 322.940 C 367.498 324.602, 367.931 326.187, 367.519 327.937 C 366.524 332.159, 363.430 334, 357.332 334 L 351.885 334 352.193 338.250 L 352.500 342.500 357 342.764 C 364.162 343.183, 366.007 343.888, 367.037 346.597 C 369.338 352.649, 364.519 357.408, 356.664 356.839 L 352.500 356.538 352.228 375.269 C 352.078 385.571, 352.326 394, 352.779 394 C 354.657 394, 372.163 376.508, 375.928 370.870 L 380 364.772 380 307.886 L 380 251 373.524 251 L 367.047 251 366.774 268.250 M 55.355 265.682 C 49.845 266.434, 47.413 271.423, 49.440 277.812 C 50.539 281.275, 53.842 282, 68.509 282 C 81.002 282, 82.064 281.849, 84.544 279.716 C 86.580 277.965, 87.200 276.514, 87.200 273.506 C 87.200 267.332, 84.772 266, 73.514 266 C 68.419 266, 62.956 265.832, 61.375 265.626 C 59.794 265.421, 57.085 265.446, 55.355 265.682 M 413.772 265.745 C 412.272 265.956, 410.134 267.285, 409.022 268.699 C 406.238 272.238, 406.435 276.526, 409.525 279.615 C 412.039 282.130, 412.112 282.139, 427.615 281.820 C 442.582 281.512, 443.255 281.409, 445.091 279.139 C 447.840 275.740, 447.559 270.874, 444.444 267.947 C 442.035 265.685, 441.154 265.540, 429.194 265.453 C 422.212 265.402, 415.272 265.534, 413.772 265.745 M 214.705 279.325 C 214.447 279.998, 214.472 286.725, 214.760 294.274 L 215.284 308 226.642 308 L 238 308 238 298.137 L 238 288.273 232.160 285.652 C 215.897 278.354, 215.178 278.093, 214.705 279.325 M 267.984 283.579 C 262.218 286.051, 256.921 288.841, 256.213 289.778 C 255.349 290.922, 255.021 294.113, 255.213 299.491 L 255.500 307.500 267.500 307.500 L 279.500 307.500 279.780 294.715 C 279.934 287.683, 279.702 281.290, 279.264 280.508 C 278.615 279.347, 276.538 279.913, 267.984 283.579 M 115 291.500 L 115 297 129 297 L 143 297 143 291.500 L 143 286 129 286 L 115 286 115 291.500 M 64.761 296.062 C 60.200 298.470, 58.308 301.207, 57.439 306.647 C 56.561 312.150, 58.242 316.873, 62.574 321.072 C 65.829 324.226, 66.605 324.500, 72.306 324.500 C 79.961 324.500, 83.787 322.112, 86.966 315.349 C 88.943 311.143, 89.042 310.222, 87.940 306.286 C 87.266 303.877, 85.867 300.829, 84.832 299.514 C 80.472 293.971, 71.609 292.447, 64.761 296.062 M 415.748 295.661 C 408.364 299.551, 405.557 311.047, 410.270 318.102 C 414.805 324.890, 424.085 326.925, 431.396 322.734 C 441.511 316.935, 441.570 301.778, 431.500 295.898 C 427.838 293.759, 419.595 293.636, 415.748 295.661 M 115 316 L 115 321 120.845 321 C 127.608 321, 130 322.769, 130 327.772 C 130 332.035, 126.932 334, 120.277 334 L 115 334 115 338.500 L 115 343 120.927 343 C 126.180 343, 127.097 343.308, 128.984 345.707 C 130.472 347.598, 130.926 349.179, 130.491 350.957 C 129.481 355.083, 127.447 356.340, 121.030 356.804 C 115 357.240, 115 357.241, 115 360.449 C 115 363.954, 118.306 369.499, 125.188 377.536 C 131.248 384.612, 140.927 393.191, 142.325 392.725 C 143.191 392.437, 143.573 382.241, 143.778 353.917 C 143.931 332.788, 143.810 314.488, 143.509 313.250 C 142.974 311.050, 142.651 311, 128.981 311 L 115 311 115 316 M 183.424 326.338 C 183.141 327.075, 183.043 331.237, 183.205 335.588 L 183.500 343.500 190.750 343.794 L 198 344.088 198 334.544 L 198 325 190.969 325 C 186.018 325, 183.785 325.396, 183.424 326.338 M 214.429 326.325 C 214.144 327.068, 214.043 331.237, 214.205 335.588 L 214.500 343.500 247 343.500 L 279.500 343.500 279.500 334.500 L 279.500 325.500 247.224 325.236 C 220.841 325.020, 214.853 325.219, 214.429 326.325 M 296 334.500 L 296 344.088 303.250 343.794 L 310.500 343.500 310.500 334.500 L 310.500 325.500 303.250 325.206 L 296 324.912 296 334.500 M 183.428 362.327 C 183.141 363.075, 183.040 367.020, 183.203 371.094 L 183.500 378.500 210 378.500 L 236.500 378.500 236.500 370 L 236.500 361.500 210.225 361.233 C 188.808 361.016, 183.854 361.218, 183.428 362.327 M 248.211 369.736 L 248.500 378.500 279.500 378.500 L 310.500 378.500 310.500 370 L 310.500 361.500 279.211 361.236 L 247.922 360.971 248.211 369.736 M 183.667 395.667 C 182.385 396.949, 183.014 407.790, 184.593 411.628 C 186.414 416.054, 190.335 420.569, 194.038 422.506 C 196.891 423.997, 230.839 424.923, 234.750 423.617 C 236.921 422.892, 237 422.433, 237 410.514 C 237 403.721, 236.727 397.452, 236.393 396.582 C 235.861 395.196, 232.596 395, 210.060 395 C 195.910 395, 184.033 395.300, 183.667 395.667 M 248.667 395.667 C 248.300 396.033, 248.008 398.846, 248.017 401.917 C 248.039 409.396, 251.940 417.113, 257.849 421.368 L 262.197 424.500 280.029 424.312 C 299.773 424.103, 302.008 423.546, 306.310 417.751 C 309.513 413.437, 311 408.739, 311 402.933 C 311 394.367, 313.509 395, 279.560 395 C 262.935 395, 249.033 395.300, 248.667 395.667" stroke="none" fill="#eff6f7" fill-rule="evenodd"/></svg>